<svg width="20" height="20" viewBox="0 0 20 20" fill="none" xmlns="http://www.w3.org/2000/svg">
<path fill-rule="evenodd" clip-rule="evenodd" d="M4.04048 9.83334C4.04048 6.24349 6.95063 3.33334 10.5405 3.33334C14.1303 3.33334 17.0405 6.24349 17.0405 9.83334C17.0405 13.4232 14.1303 16.3333 10.5405 16.3333C8.48062 16.3333 6.64437 15.3746 5.45428 13.881L5.40235 13.8158L6.18445 13.1927L6.23638 13.2578C7.24489 14.5236 8.79795 15.3333 10.5405 15.3333C13.578 15.3333 16.0405 12.8709 16.0405 9.83334C16.0405 6.79578 13.578 4.33334 10.5405 4.33334C7.50291 4.33334 5.04048 6.79578 5.04048 9.83334C5.04048 9.87505 5.04094 9.91664 5.04187 9.95811L5.87377 9.12621L6.58088 9.83331L4.54044 11.8738L2.5 9.83331L3.20711 9.12621L4.04171 9.96081C4.04089 9.91841 4.04048 9.87592 4.04048 9.83334Z" fill="#828282"/>
</svg>
